<?xml version="1.0" encoding="UTF-8"?>
<svg id="CowSpot11" xmlns="http://www.w3.org/2000/svg" viewBox="0 0 55.17 50.34">
  <defs>
    <style>
      .cls-1 {
        fill: #231f20;
      }
    </style>
  </defs>
  <path class="cls-1" d="M13.54,21.65c.49-.65,1.54-1.53,3.63-1.74,.53-.05,1.02-.28,1.43-.62,.81-.67,2.09-1.95,3.07-3.99,.33-.69,.88-1.28,1.61-1.52,1.17-.38,2.96-.22,4.59,3.01,2.71,5.35,4.95,4.98,4.95,4.98,0,0,5.39-.48,7,.81s2.42,1.5,2.49,3.66c.06,1.8-2.57,3.12-3.45,3.51-.21,.09-.41,.22-.6,.36-1.01,.79-4.12,3.32-4.3,4.7-.22,1.65-4.07,2.93-5.68,.62-1.07-1.54-1.32-2.62-1.36-3.17-.03-.36-.15-.71-.33-1.03l-.74-1.37c-.28-.52-.71-.94-1.24-1.2-1.36-.66-4.27-1.69-7.98-.88-4.41,.96-3.85-3.61-3.57-5.02,.08-.41,.24-.79,.49-1.11Z"/>
</svg>