<?xml version="1.0" encoding="UTF-8"?>
<svg id="CowSpot8" xmlns="http://www.w3.org/2000/svg" viewBox="0 0 55.17 50.34">
  <defs>
    <style>
      .cls-1 {
        fill: #231f20;
      }
    </style>
  </defs>
  <path class="cls-1" d="M37.44,49.62c-1.62,.49-6.36-1.11-6.38-1.11,0,0,0,0,0,0l-4.45-1.27s0,0,0,0c-.02,0-5.3-.92-7.34-4.1,0,0-.34-1.51-3.12-1.91s-5.7,.7-8.32-.94c-1.8-1.13-2.08-.76-2.77-1.56-.89-1.04-1.31-2.4-1.27-3.77,.08-2.36-.05-6.72-1.71-9.99C-.31,20.24,5.4,13.8,7.38,13.05c3.17-1.2,8.95,.06,9.64-1.82,0-.01,.02,0,.03,0,.12-.23,1.91-3.76,4.79-3.69s8.2-.18,8.54-4.61,15.69-1.36,15.69-1.36c0,0,8.59,1.02,7.5,5.93s-1.77,4.77-3.21,6.34-2.11,4.57-1.36,12.69c.75,8.12,3.55,10.44,3.55,10.44,0,0,1.98,2.59-1.49,5.93,0,0,0,0,0,0-.02,.12-6.51,6.07-13.61,6.72"/>
</svg>