<?xml version="1.0" encoding="UTF-8"?>
<svg id="CowSpot5" xmlns="http://www.w3.org/2000/svg" viewBox="0 0 55.17 50.34">
  <defs>
    <style>
      .cls-1 {
        fill: #231f20;
      }
    </style>
  </defs>
  <path class="cls-1" d="M18.06,31.04s5.78-7.24,0-12.49c-4.76-4.32-.82-8.8,.73-10.26,.35-.33,.75-.59,1.19-.78,1.13-.5,3.59-1.45,5.71-1.31,1.96,.13,4.13,.08,5.3,.03,1.06-.04,2.13,.27,2.94,.96,1.24,1.05,2.86,3.19,4.4,7.56,2.18,6.19,.5,8-.66,8.53-.86,.39-1.61,.99-2.08,1.81-.95,1.67-1.9,4.68-.57,9.2,0,0,.83,2.96-.97,4.76s-3.69,6.03-6.85,6.08-7.1-.39-9.58-6.22c-2.48-5.83,.44-7.87,.44-7.87Z"/>
</svg>