<?xml version="1.0" encoding="UTF-8"?>
<svg id="CowSpot2" xmlns="http://www.w3.org/2000/svg" viewBox="0 0 55.17 48.98">
  <defs>
    <style>
      .cls-1 {
        fill: #231f20;
      }
    </style>
  </defs>
  <path class="cls-1" d="M20.66,32.62c-.48-.79-.77-1.68-.87-2.6-.16-1.48-.54-4.08-1.38-5.98-1.23-2.81,1.82-7.25,2.61-8.24s2.86-3.01,5.62-3.6,3.85,.99,4.34,2.12,.49,3.21,3.8,4.39c0,0,1.38,.51,1.68,2.8s0,3.47,0,3.47c0,0,.05,2.02,.49,3.21s-.64,4.09-1.97,5.03-2.47,2.37-4.93,3.35-5.82-.49-7.35-1.53c-.8-.54-1.53-1.57-2.04-2.42Z"/>
</svg>