<?xml version="1.0" encoding="UTF-8"?>
<svg id="CowSpot3" xmlns="http://www.w3.org/2000/svg" viewBox="0 0 55.17 50.67">
  <defs>
    <style>
      .cls-1 {
        fill: #231f20;
      }
    </style>
  </defs>
  <path class="cls-1" d="M10.52,26.47c.61-1.77,1.66-3.36,3.06-4.6,2.31-2.03,6.15-4.89,10.22-5.64,0,0,2.8-1.19,6.34,.7s6.75-.08,6.75-.08c0,0,3.62-1.4,6.34,.33s1.73,3.87,1.73,3.87c0,0-.58,2.91-2.47,4.54-1.69,1.46-5.81,2.2-6.67,2.35-.13,.02-.25,.05-.38,.09-.91,.26-4.4,1.41-7.17,4.46s-8.99,2.36-11.08,2.08c-.45-.06-.89-.21-1.29-.43-1.34-.73-4.48-2.53-4.99-3.63-.24-.5-.41-.99-.53-1.41-.22-.76-.2-1.56,.06-2.3l.11-.32Z"/>
</svg>