<?xml version="1.0" encoding="UTF-8"?>
<svg id="CowSpot7" xmlns="http://www.w3.org/2000/svg" viewBox="0 0 55.17 50.34">
  <defs>
    <style>
      .cls-1 {
        fill: #231f20;
      }
    </style>
  </defs>
  <path class="cls-1" d="M4.27,29.71c-.57-1.76-.28-3.7,.86-5.15,1.22-1.56,2.85-4.32,3.2-8.22,.58-6.41,12.24-3.15,12.24-3.15,0,0,2.21,1.4,5.89,1.22s4.21-4.88,7.99-5.19,4.86,7.33,4.86,7.33c0,0-.08,6.33,4.86,7.64s5.94,1.78,7.02,4.94-3.78,6.41-5.87,7.18-6.01,2.7-7.1,3.7c-1.85,1.7-6.56,1.54-10.69-1.23-3.27-2.2-10.29-.38-13.07,.47-1.34,.41-2.79,.23-3.97-.5s-2.52-1.97-3.91-4.21c-1.19-1.92-1.9-3.54-2.32-4.83Z"/>
</svg>