<?xml version="1.0" encoding="UTF-8"?>
<svg id="CowSpot4" xmlns="http://www.w3.org/2000/svg" viewBox="0 0 55.17 54.67">
  <defs>
    <style>
      .cls-1 {
        fill: #231f20;
      }
    </style>
  </defs>
  <path class="cls-1" d="M8.31,26.42s1.83-1.99,2.35-7.09c.25-2.47,2.26-4.45,4.74-4.44,.04,0,.08,0,.12,0,2.5,.05,3.91,.67,4.61,1.12s1.46,.73,2.27,.87c1.7,.3,4.43,.54,6.95-.31,3.75-1.27,11.77-2.02,12.92-2.13,.11,0,.21-.01,.32,0,.79,.06,3.86,.49,4.08,3.89,.02,.31-.06,.6-.18,.88-.35,.8-.92,2.97,.88,6.67,.6,1.23,.49,2.63,.39,3.69-.11,1.21-.66,2.32-1.56,3.14-1.35,1.23-3.56,3.14-5.02,3.79-2.21,.99-4.43,3.51-9.7,3.74-4.5,.2-13.08-2.62-15.48-3.44-.45-.15-.87-.35-1.28-.6-1.46-.87-4.99-3.1-6.41-5.2-1.81-2.67,0-4.58,0-4.58Z"/>
</svg>