<?xml version="1.0" encoding="UTF-8"?>
<svg id="CowSpot9" xmlns="http://www.w3.org/2000/svg" viewBox="0 0 55.17 50.34">
  <defs>
    <style>
      .cls-1 {
        fill: #231f20;
      }
    </style>
  </defs>
  <path class="cls-1" d="M14.33,35.61s2.38-11.14-.49-18.08c-2.87-6.94,6.59-7.36,6.59-7.36,0,0,3.96,.24,6.5-.54,.47-.14,.96-.13,1.43,.02,1.65,.5,5.56,1.57,8.32,1.41,3.59-.22,7.25,5.92,3.84,9.3s-4.34,3.73-8.33,5.92c-3.71,2.04-7.1,6.99-7.56,7.68-.04,.06-.07,.11-.1,.16l-3.11,5.54s-1.05,1.87-3.48,.86-2.33-.86-3.39-2.18-.23-2.73-.23-2.73Z"/>
</svg>